<svg width="100" height="100" viewBox="0 0 100 100" fill="none" xmlns="http://www.w3.org/2000/svg">
<path d="M49.7326 99.1214C37.0341 99.1214 24.3459 94.2919 14.6763 84.6223C-4.65252 65.2934 -4.65252 33.8489 14.6763 14.5201C24.0441 5.15229 36.4928 0 49.7326 0C62.9724 0 75.4212 5.15229 84.7889 14.5201C104.118 33.8489 104.118 65.2934 84.7889 84.6223C75.1297 94.2815 62.4311 99.1214 49.7326 99.1214ZM17.2785 82.0201C35.1709 99.9126 64.2839 99.9126 82.1763 82.0201C100.069 64.1277 100.069 35.0147 82.1763 17.1222C73.506 8.45183 61.9836 3.6847 49.7222 3.6847C37.4609 3.6847 25.9384 8.46223 17.2681 17.1222C-0.624391 35.0147 -0.624391 64.1277 17.2681 82.0201H17.2785Z" fill="#EBF29D"/>
<path d="M49.077 68.1142C49.2539 68.541 49.6703 68.7907 50.1074 68.7907C50.2532 68.7907 50.3989 68.7595 50.5446 68.7074C54.0419 67.2398 57.2269 64.9707 59.7458 62.1395C60.1518 61.6816 60.1101 60.9739 59.6521 60.5679C59.1942 60.162 58.4864 60.2036 58.0804 60.6616C55.7801 63.2533 52.8761 65.3247 49.6806 66.657C49.1186 66.8964 48.8479 67.5521 49.0873 68.1142H49.077Z" fill="#EBF29D"/>
<path d="M68.6226 32.4336L50.1369 25.0434C49.8663 24.9393 49.5748 24.9393 49.3042 25.0434L30.8185 32.4336C30.3917 32.6001 30.1211 33.006 30.1211 33.464V46.7038C30.1419 58.9235 37.8651 69.9671 49.3355 74.1722C49.4604 74.2138 49.5853 74.2347 49.7206 74.2347C49.8559 74.2347 49.9808 74.2138 50.1057 74.1722C61.576 69.9567 69.2992 58.9235 69.32 46.7038V33.464C69.32 33.006 69.0494 32.6001 68.6226 32.4336ZM67.0926 46.7038C67.0718 57.8202 60.0979 67.9478 49.7309 71.9343C39.3639 67.9478 32.3797 57.8202 32.3589 46.7038V34.2238L49.7309 27.2813L67.0926 34.2238V46.7038Z" fill="#EBF29D"/>
<path d="M42.0084 34.1716C41.7378 34.0571 41.4359 34.0571 41.1549 34.1716L36.752 35.9307C36.3253 36.0972 36.0547 36.5032 36.0547 36.9611V41.6554C36.0547 42.2695 36.5543 42.7691 37.1684 42.7691C37.7825 42.7691 38.2821 42.2695 38.2821 41.6554V37.7209L41.9772 36.243C42.2582 36.1285 42.4664 35.9203 42.5913 35.6392C42.7058 35.3686 42.7058 35.0668 42.5913 34.7858C42.4768 34.5047 42.2686 34.2965 41.998 34.1716H42.0084Z" fill="#EBF29D"/>
<path d="M77.8877 21.4211C70.3727 13.8957 60.3699 9.76343 49.7323 9.76343C39.0947 9.76343 29.1024 13.9061 21.577 21.4211C6.05768 36.9404 6.05768 62.2022 21.577 77.7319C29.3418 85.4967 39.5318 89.3686 49.7323 89.3686C59.9328 89.3686 70.1229 85.4863 77.8877 77.7319C93.407 62.2126 93.407 36.9508 77.8877 21.4211ZM72.3815 46.7037C72.4127 60.8282 63.3884 73.1833 49.9301 77.4612C49.8052 77.5029 49.6698 77.5029 49.5345 77.4612C36.0762 73.1833 27.0519 60.8282 27.0832 46.7037V31.0803C27.0832 30.8201 27.2392 30.5807 27.4891 30.4766L49.4929 21.6813C49.5658 21.6501 49.649 21.6397 49.7323 21.6397C49.8156 21.6397 49.8989 21.6501 49.9717 21.6813L71.9756 30.4871C72.2254 30.5807 72.3815 30.8201 72.3815 31.0907V46.7141V46.7037Z" fill="#EBF29D"/>
</svg>
