<svg width="100" height="100" viewBox="0 0 100 100" fill="none" xmlns="http://www.w3.org/2000/svg">
<path d="M50.1273 99.3893C22.8046 99.3893 0.582153 77.1564 0.582153 49.8442C0.582153 22.5319 22.815 0.299072 50.1273 0.299072C77.4396 0.299072 99.6724 22.5319 99.6724 49.8442C99.6724 77.1564 77.4396 99.3893 50.1273 99.3893ZM50.1273 3.59859C24.6261 3.59859 3.88174 24.343 3.88174 49.8442C3.88174 75.3453 24.6261 96.0897 50.1273 96.0897C75.6285 96.0897 96.3729 75.3453 96.3729 49.8442C96.3729 24.343 75.6285 3.59859 50.1273 3.59859Z" fill="white"/>
<path d="M66.1979 18.8995C65.9481 18.8995 65.6983 18.8474 65.4693 18.733C60.6709 16.3598 55.5082 15.1524 50.127 15.1524C44.7457 15.1524 39.583 16.3598 34.7847 18.733C34.1497 19.0452 33.3899 18.9203 32.8903 18.4206L24.376 9.90639C24.0117 9.54208 23.8452 9.04246 23.9076 8.53244C23.9701 8.02242 24.2615 7.57486 24.6987 7.31465C32.3699 2.71403 41.1652 0.288818 50.1374 0.288818C59.1096 0.288818 67.9049 2.72444 75.5761 7.31465C76.0133 7.57486 76.3047 8.02242 76.3671 8.53244C76.4296 9.04246 76.2527 9.54208 75.8988 9.90639L67.3845 18.4206C67.0618 18.7329 66.6455 18.8995 66.2083 18.8995H66.1979ZM50.127 11.8528C55.6123 11.8528 60.8999 12.9978 65.8544 15.2564L72.0163 9.09455C65.3131 5.48275 57.7877 3.58834 50.127 3.58834C42.4662 3.58834 34.9408 5.48275 28.2376 9.09455L34.3996 15.2564C39.3541 12.9978 44.6416 11.8528 50.127 11.8528Z" fill="white"/>
<path d="M50.1252 99.3893C41.1529 99.3893 32.3576 96.9537 24.6865 92.3635C24.2493 92.1032 23.9579 91.6556 23.8954 91.1456C23.833 90.6356 24.0099 90.136 24.3638 89.7717L32.8781 81.2574C33.3777 80.7578 34.1479 80.6329 34.7725 80.9451C39.5708 83.3183 44.7335 84.5257 50.1148 84.5257C55.496 84.5257 60.6587 83.3183 65.4571 80.9451C66.092 80.6329 66.8519 80.7578 67.3515 81.2574L75.8657 89.7717C76.23 90.136 76.3966 90.6356 76.3341 91.1456C76.2717 91.6556 75.9802 92.1032 75.5431 92.3635C67.8719 96.9641 59.0766 99.3893 50.1044 99.3893H50.1252ZM28.2358 90.5836C34.939 94.1954 42.4644 96.0897 50.1252 96.0897C57.7859 96.0897 65.3114 94.1954 72.0145 90.5836L65.8526 84.4217C60.8981 86.6803 55.6105 87.8252 50.1252 87.8252C44.6398 87.8252 39.3523 86.6803 34.3978 84.4217L28.2358 90.5836Z" fill="white"/>
<path d="M91.2331 76.074C90.7959 76.074 90.3796 75.9075 90.0673 75.5952L81.553 67.081C81.0534 66.5814 80.9285 65.8111 81.2408 65.1866C83.614 60.3882 84.8213 55.2255 84.8213 49.8443C84.8213 44.463 83.614 39.3003 81.2408 34.502C80.9285 33.867 81.0534 33.0968 81.553 32.6076L90.0673 24.0933C90.4316 23.729 90.9312 23.5625 91.4413 23.6249C91.9513 23.6874 92.3988 23.9788 92.659 24.416C97.2597 32.0871 99.6849 40.8824 99.6849 49.8547C99.6849 58.8269 97.2597 67.6222 92.659 75.2934C92.3988 75.7306 91.9513 76.022 91.4413 76.0845C91.3684 76.0845 91.3059 76.0845 91.2331 76.0845V76.074ZM84.7068 65.5613L90.8688 71.7232C94.4806 65.0201 96.3749 57.4946 96.3749 49.8339C96.3749 42.1731 94.4806 34.6477 90.8688 27.9445L84.7068 34.1064C86.9655 39.0609 88.1105 44.3485 88.1105 49.8339C88.1105 55.3192 86.9655 60.6068 84.7068 65.5613Z" fill="white"/>
<path d="M9.02385 76.0741C8.95099 76.0741 8.88853 76.0741 8.82608 76.0636C8.31606 76.0012 7.86844 75.7097 7.60823 75.2726C3.00761 67.6014 0.582397 58.8061 0.582397 49.8339C0.582397 40.8616 3.00761 32.0664 7.60823 24.3952C7.86844 23.9581 8.31606 23.6666 8.82608 23.6042C9.33611 23.5417 9.83573 23.7186 10.2 24.0725L18.7143 32.5868C19.2139 33.0864 19.3388 33.8566 19.0265 34.4811C16.6534 39.2795 15.446 44.4423 15.446 49.8235C15.446 55.2048 16.6534 60.3675 19.0265 65.1658C19.3388 65.8008 19.2139 66.571 18.7143 67.0602L10.2 75.5745C9.88777 75.8867 9.47137 76.0636 9.03421 76.0636L9.02385 76.0741ZM9.38813 27.9445C5.77633 34.6477 3.88198 42.1731 3.88198 49.8339C3.88198 57.4946 5.77633 65.0201 9.38813 71.7233L15.55 65.5614C13.2913 60.6069 12.1464 55.3192 12.1464 49.8339C12.1464 44.3485 13.2913 39.0609 15.55 34.1064L9.38813 27.9445Z" fill="white"/>
<path d="M50.1284 11.8528C29.1862 11.8528 12.1368 28.8917 12.1368 49.8443C12.1368 70.7969 29.1758 87.8358 50.1284 87.8358C71.0809 87.8358 88.1199 70.7969 88.1199 49.8443C88.1199 28.8917 71.0809 11.8528 50.1284 11.8528ZM71.5077 37.3644C73.3084 40.4453 74.4013 43.8073 74.7552 47.3775C74.7656 47.5232 74.7031 47.6585 74.5782 47.7314C71.8616 49.3968 69.4259 51.4368 67.3234 53.8204C67.2297 53.9349 67.0736 53.9766 66.9383 53.9245L62.244 52.3944C62.1087 52.3528 62.015 52.2383 61.9942 52.0926C61.4633 48.2102 60.256 44.4943 58.4032 41.0386C58.3408 40.9137 58.3512 40.768 58.4344 40.6535L61.3384 36.6566C61.4113 36.5629 61.5258 36.5004 61.6403 36.5004C61.6715 36.5004 61.6924 36.5004 61.7236 36.5004C64.8254 37.1874 68.0104 37.4164 71.1746 37.1562C71.3203 37.1458 71.4556 37.2186 71.5285 37.3435L71.5077 37.3644ZM59.4337 52.7484C59.4441 52.8524 59.4128 52.9565 59.3504 53.0293C56.8835 55.8709 53.7402 58.1504 50.2741 59.6076C50.1804 59.6492 50.0867 59.6492 49.993 59.6076C46.527 58.14 43.3835 55.8605 40.9167 53.0293C40.8542 52.9565 40.823 52.8524 40.8335 52.7484C41.3123 48.9804 42.4884 45.379 44.3099 42.0482C44.3619 41.9546 44.4453 41.8921 44.5493 41.8713C46.3813 41.4862 48.2548 41.2884 50.1388 41.2884C52.0227 41.2884 53.8963 41.4862 55.7282 41.8713C55.8323 41.8921 55.9155 41.9546 55.9676 42.0482C57.7891 45.379 58.9549 48.9804 59.4441 52.7484H59.4337ZM58.8716 26.9141C58.8716 26.9141 58.9965 26.81 59.1214 26.81C59.1631 26.81 59.2151 26.81 59.2671 26.8412C63.0975 28.3609 66.522 30.859 69.1866 34.0544C69.3219 34.2105 69.2698 34.3771 69.2386 34.4395C69.2178 34.4916 69.1241 34.6581 68.9055 34.6581C66.5428 34.6894 64.1904 34.4187 61.9109 33.8775C61.8173 33.8567 61.734 33.7942 61.6819 33.7109C60.4641 31.7021 59.4857 29.5371 58.7779 27.2888C58.7155 27.091 58.83 26.9557 58.882 26.9141H58.8716ZM44.872 25.6651C48.3173 24.926 51.9499 24.926 55.3951 25.6651C55.5304 25.6963 55.6449 25.8004 55.6761 25.9357C56.4151 29.0271 57.6122 31.9831 59.2255 34.7206C59.2984 34.8455 59.2879 35.0016 59.2047 35.1265L56.3215 39.1026C56.2382 39.2171 56.0925 39.2795 55.9572 39.2483C52.1476 38.4781 48.1195 38.4781 44.3099 39.2483C44.1746 39.2795 44.0289 39.2171 43.9456 39.1026L41.0624 35.1265C40.9791 35.012 40.9687 34.8455 41.0416 34.7206C42.6549 31.9831 43.8519 29.0271 44.591 25.9357C44.6222 25.8004 44.7367 25.6963 44.872 25.6651ZM31.0806 34.0544C33.7452 30.8486 37.1696 28.3505 41 26.8412C41.052 26.8204 41.1041 26.81 41.1457 26.81C41.281 26.81 41.3643 26.8829 41.3955 26.9141C41.4475 26.9662 41.562 27.091 41.4996 27.2888C40.7918 29.5475 39.8134 31.7021 38.5956 33.7109C38.5435 33.7942 38.4603 33.8567 38.3666 33.8775C36.0871 34.4187 33.7347 34.6894 31.372 34.6581C31.1534 34.6581 31.0597 34.4916 31.0389 34.4395C31.0077 34.3771 30.9556 34.2105 31.0909 34.0544H31.0806ZM28.7594 37.3644C28.8219 37.2499 28.9468 37.177 29.0821 37.177C29.0821 37.177 29.1029 37.177 29.1133 37.177C32.288 37.4268 35.473 37.2082 38.5644 36.5213C38.7101 36.49 38.8558 36.5421 38.9391 36.667L41.8431 40.6639C41.9263 40.7784 41.9368 40.9346 41.8743 41.0491C40.0216 44.5047 38.8142 48.2206 38.2833 52.103C38.2625 52.2383 38.1688 52.3528 38.0335 52.4048L33.3392 53.9349C33.2039 53.9765 33.0478 53.9349 32.9541 53.8308C30.8516 51.4472 28.4159 49.4072 25.6993 47.7418C25.5848 47.6689 25.5119 47.5336 25.5223 47.3879C25.8762 43.8177 26.9691 40.4453 28.7698 37.3748L28.7594 37.3644ZM29.894 63.0113C29.8315 63.209 29.6546 63.2506 29.5817 63.261C29.5089 63.261 29.3423 63.2611 29.2278 63.0945C27.0108 59.6076 25.6993 55.5691 25.439 51.4264C25.4286 51.2183 25.5639 51.1142 25.6264 51.0829C25.6888 51.0517 25.8554 50.9789 26.0219 51.1038C27.9475 52.4673 29.6962 54.0702 31.2262 55.8501C31.2887 55.923 31.3199 56.0167 31.3095 56.1207C31.1222 58.4627 30.6434 60.7838 29.8836 63.0217L29.894 63.0113ZM40.1777 72.5143C36.9302 71.0884 34.0678 68.9962 31.6738 66.3108C31.5801 66.2067 31.549 66.0506 31.601 65.9257C32.8188 62.9904 33.589 59.899 33.8909 56.7348C33.9013 56.5891 34.0054 56.4642 34.1407 56.4226L38.7829 54.9133C38.7829 54.9133 38.8558 54.8925 38.8974 54.8925C39.0015 54.8925 39.0952 54.9342 39.168 55.0174C41.7702 57.9318 45.0281 60.305 48.5983 61.8767C48.7336 61.9391 48.8169 62.064 48.8169 62.2098V67.0914C48.8169 67.2371 48.7336 67.3725 48.5983 67.4245C45.6838 68.6839 42.9776 70.3806 40.5524 72.4519C40.4483 72.5456 40.2922 72.5664 40.1673 72.5039L40.1777 72.5143ZM56.5505 73.5448C56.5401 73.6176 56.488 73.7842 56.2798 73.8363C52.2621 74.8563 48.0154 74.8563 43.9977 73.8363C43.7999 73.7842 43.7374 73.6176 43.727 73.5448C43.7166 73.4719 43.6958 73.3054 43.8728 73.1701C45.7671 71.7649 47.8281 70.5887 50.0035 69.6832C50.0971 69.6415 50.1908 69.6415 50.2845 69.6832C52.4494 70.5887 54.5104 71.7649 56.4152 73.1701C56.5817 73.295 56.5713 73.4719 56.5609 73.5448H56.5505ZM68.6141 66.3212C66.2201 69.0066 63.3577 71.0884 60.1102 72.5143C59.9749 72.5768 59.8292 72.5456 59.7251 72.4623C57.2999 70.391 54.6041 68.6944 51.6792 67.4349C51.5439 67.3725 51.4606 67.2476 51.4606 67.1018V62.2202C51.4606 62.0745 51.5439 61.9391 51.6792 61.8871C55.2494 60.3154 58.5177 57.9423 61.1095 55.0278C61.1823 54.9446 61.276 54.9029 61.3801 54.9029C61.4217 54.9029 61.4529 54.9029 61.4946 54.9237L66.1368 56.433C66.2722 56.4746 66.3762 56.5995 66.3866 56.7452C66.6885 59.9095 67.4587 62.9904 68.6766 65.9361C68.7286 66.061 68.7078 66.2171 68.6037 66.3212H68.6141ZM71.0497 63.1049C70.9352 63.2818 70.7583 63.2819 70.6958 63.2715C70.623 63.2715 70.4564 63.2194 70.3835 63.0217C69.6341 60.7838 69.1553 58.4627 68.9575 56.1207C68.9575 56.0271 68.9784 55.923 69.0408 55.8501C70.5709 54.0702 72.3196 52.4777 74.2451 51.1038C74.318 51.0517 74.3909 51.0309 74.4533 51.0309C74.5366 51.0309 74.599 51.0621 74.6407 51.0829C74.7031 51.1142 74.8488 51.2183 74.828 51.4264C74.5678 55.5691 73.2563 59.6076 71.0393 63.0945L71.0497 63.1049Z" fill="white"/>
</svg>
